{"title":"Victor.Crowley.2017.SWESUB.1080p.BluRay.x264.DTS5.1-Stiffy","magnet":"magnet:?xt=urn:btih:6b96e16b235fe55bd325f92093ba83689e5defe4&dn=Victor.Crowley.2017.SWESUB.1080p.BluRay.x264.DTS5.1-Stiffy&tr=udp%3A%2F%2Ftracker.leechers-paradise.org%3A6969&tr=udp%3A%2F%2Fzer0day.ch%3A1337&tr=udp%3A%2F%2Fopen.demonii.com%3A1337&tr=udp%3A%2F%2Ftracker.coppersurfer.tk%3A6969&tr=udp%3A%2F%2Fexodus.desync.com%3A6969","uploader":"Mr.Stifmeister","categoryP":"video","categoryS":"hd___movies","size":"8596489782","seeders":"11","leechers":"56","description":"Victor.Crowley.2017.SWESUB.1080p.BluRay.x264.DTS5.1-Stiffy\r\n\r\n\r\n <a href=\"\nhttp://www.imdb.com/title/tt5534434/\" rel=\"nofollow\" target=\"_NEW\">\nhttp://www.imdb.com/title/tt5534434/</a>\r\nTen years after the events of the original movie, Victor Crowley is mistakenly resurrected and proceeds to kill once more. \r\n\r\n\r\n\r\nMediainfo:\r\n\r\nFormat : Matroska\r\nFormat version : Version 4 / Version 2\r\nFile size : 8.01 GiB\r\nDuration : 1h 22mn\r\nOverall bit rate : 13.9 Mbps\r\nWriting application : mkvmerge v18.0.0 (&apos;Apricity&apos;) 64-bit\r\nWriting library : libebml v1.3.5 + libmatroska v1.4.8\r\n\r\nVideo\r\nID : 1\r\nFormat : AVC\r\nFormat/Info : Advanced Video Codec\r\nFormat profile : <a href=\"/cdn-cgi/l/email-protection\" class=\"__cf_email__\" data-cfemail=\"3f725e56517f730b110e\">[email&#xA0;protected]</a>\r\nFormat settings, CABAC : Yes\r\nFormat settings, ReFrames : 4 frames\r\nCodec ID : V_MPEG4/ISO/AVC\r\nDuration : 1h 22mn\r\nBit rate : 12.7 Mbps\r\nWidth : 1 920 pixels\r\nHeight : 800 pixels\r\nDisplay aspect ratio : 2.40:1\r\nFrame rate mode : Constant\r\nFrame rate : 23.976 (24000/1001) fps\r\nColor space : YUV\r\nChroma subsampling : 4:2:0\r\nBit depth : 8 bits\r\nScan type : Progressive\r\nBits/(Pixel*Frame) : 0.344\r\nStream size : 7.13 GiB (89%)\r\nWriting library : x264 core 148 r2708 86b7198\r\nDefault : Yes\r\nForced : No\r\nColor range : Limited\r\nColor primaries : BT.709\r\nTransfer characteristics : BT.709\r\nMatrix coefficients : BT.709\r\n\r\nAudio\r\nID : 2\r\nFormat : DTS\r\nFormat/Info : Digital Theater Systems\r\nMode : 16\r\nFormat settings, Endianness : Big\r\nCodec ID : A_DTS\r\nDuration : 1h 22mn\r\nBit rate mode : Constant\r\nBit rate : 1 509 Kbps\r\nChannel(s) : 6 channels\r\nChannel positions : Front: L C R, Side: L R, LFE\r\nSampling rate : 48.0 KHz\r\nFrame rate : 93.750 fps (512 spf)\r\nBit depth : 16 bits\r\nCompression mode : Lossy\r\nStream size : 892 MiB (11%)\r\nLanguage : English\r\nDefault : Yes\r\nForced : No\r\n\r\nText\r\nID : 3\r\nFormat : UTF-8\r\nCodec ID : S_TEXT/UTF8\r\nCodec ID/Info : UTF-8 Plain Text\r\nDuration : 1h 18mn\r\nBit rate : 68 bps\r\nCount of elements : 846\r\nStream size : 38.9 KiB (0%)\r\nLanguage : Swedish\r\nDefault : Yes\r\nForced : No","last_updated":"2018-02-03T12:06:20.315Z","parsed":{"xt":"urn:btih:6b96e16b235fe55bd325f92093ba83689e5defe4","dn":"Victor.Crowley.2017.SWESUB.1080p.BluRay.x264.DTS5.1-Stiffy","tr":["udp://exodus.desync.com:6969","udp://open.demonii.com:1337","udp://tracker.coppersurfer.tk:6969","udp://tracker.leechers-paradise.org:6969","udp://zer0day.ch:1337"],"infoHash":"6b96e16b235fe55bd325f92093ba83689e5defe4","infoHashBuffer":{"type":"Buffer","data":[107,150,225,107,35,95,229,91,211,37,249,32,147,186,131,104,158,93,239,228]},"name":"Victor.Crowley.2017.SWESUB.1080p.BluRay.x264.DTS5.1-Stiffy","announce":["udp://exodus.desync.com:6969","udp://open.demonii.com:1337","udp://tracker.coppersurfer.tk:6969","udp://tracker.leechers-paradise.org:6969","udp://zer0day.ch:1337"],"urlList":[]}}